<svg width="22" height="17" viewBox="0 0 22 17" fill="none" xmlns="http://www.w3.org/2000/svg">
<path d="M19.9808 4.98083L15.3333 9.62833L13.925 8.23083L12.3975 9.76917L15.3225 12.6942L21.5191 6.51917L19.9808 4.98083ZM2.33329 4.66667C2.31995 5.23938 2.42292 5.80884 2.63597 6.34062C2.84901 6.87239 3.16771 7.35542 3.57279 7.7605C3.97787 8.16558 4.4609 8.48428 4.99268 8.69733C5.52445 8.91037 6.09392 9.01334 6.66663 9C7.23934 9.01334 7.8088 8.91037 8.34058 8.69733C8.87235 8.48428 9.35539 8.16558 9.76046 7.7605C10.1655 7.35542 10.4842 6.87239 10.6973 6.34062C10.9103 5.80884 11.0133 5.23938 11 4.66667C11.0133 4.09396 10.9103 3.52449 10.6973 2.99272C10.4842 2.46094 10.1655 1.97791 9.76046 1.57283C9.35539 1.16775 8.87235 0.849054 8.34058 0.636006C7.8088 0.422959 7.23934 0.319991 6.66663 0.333333C6.09392 0.319991 5.52445 0.422959 4.99268 0.636006C4.4609 0.849054 3.97787 1.16775 3.57279 1.57283C3.16771 1.97791 2.84901 2.46094 2.63597 2.99272C2.42292 3.52449 2.31995 4.09396 2.33329 4.66667ZM8.83329 4.66667C8.84723 4.95489 8.80072 5.24284 8.69677 5.51202C8.59281 5.7812 8.4337 6.02566 8.22966 6.2297C8.02562 6.43374 7.78116 6.59285 7.51198 6.69681C7.2428 6.80076 6.95485 6.84727 6.66663 6.83333C6.37841 6.84727 6.09046 6.80076 5.82128 6.69681C5.55209 6.59285 5.30763 6.43374 5.10359 6.2297C4.89955 6.02566 4.74044 5.7812 4.63649 5.51202C4.53253 5.24284 4.48603 4.95489 4.49996 4.66667C4.48603 4.37845 4.53253 4.0905 4.63649 3.82131C4.74044 3.55213 4.89955 3.30767 5.10359 3.10363C5.30763 2.89959 5.55209 2.74048 5.82128 2.63653C6.09046 2.53257 6.37841 2.48607 6.66663 2.5C6.95485 2.48607 7.2428 2.53257 7.51198 2.63653C7.78116 2.74048 8.02562 2.89959 8.22966 3.10363C8.4337 3.30767 8.59281 3.55213 8.69677 3.82131C8.80072 4.0905 8.84723 4.37845 8.83329 4.66667ZM2.33329 15.5C2.33329 14.638 2.6757 13.8114 3.2852 13.2019C3.89469 12.5924 4.72134 12.25 5.58329 12.25H7.74996C8.61191 12.25 9.43856 12.5924 10.0481 13.2019C10.6576 13.8114 11 14.638 11 15.5V16.5833H13.1666V15.5C13.1666 14.7887 13.0265 14.0843 12.7543 13.4271C12.4821 12.7699 12.0831 12.1728 11.5801 11.6698C11.0771 11.1669 10.48 10.7679 9.82283 10.4957C9.16565 10.2234 8.46129 10.0833 7.74996 10.0833H5.58329C4.1467 10.0833 2.76895 10.654 1.75313 11.6698C0.737309 12.6857 0.166626 14.0634 0.166626 15.5V16.5833H2.33329V15.5Z" fill="white"/>
</svg>
